[img]http://img803.imageshack.us/img803/1589/priesy.jpg[/img]
[code]
Priest 2011 R5 LiNE XViD V2 - IMAGiNE

Ripper ...........: IMAGiNE       IMDB Rating.......:5.6/10                             
Video Codec.......: XVID          Release Date......:06/06/11
Audio Codec.......:MP3            Theatre Date......:13/05/11
Audio Bitrate.....:128            Runtime.......:1h 23mn
Subtitles.........:NIL            Language..........:ENGLISH
Resolution...... 720 x 304        IMDb URL.......... http://www.imdb.com/title/tt0822847/

DETAILS:

Video
ID                               : 0
Format                           : MPEG-4 Visual
Format profile                   : Advanced Simple@L5
Format settings, BVOP            : 2
Format settings, QPel            : No
Format settings, GMC             : No warppoints
Format settings, Matrix          : Default (MPEG)
Muxing mode                      : Packed bitstream
Codec ID                         : XVID
Codec ID/Hint                    : XviD
Duration                         : 1h 23mn
Bit rate                         : 2 204 Kbps
Width                            : 720 pixels
Height                           : 304 pixels
Display aspect ratio             : 2.35:1
Frame rate                       : 25.000 fps
Color space                      : YUV
Chroma subsampling               : 4:2:0
Bit depth                        : 8 bits
Scan type                        : Progressive
Compression mode                 : Lossy
Bits/(Pixel*Frame)               : 0.403
Stream size                      : 1.29 GiB (94%)
Writing library                  : XviD 61

Audio
ID                               : 1
Format                           : MPEG Audio
Format version                   : Version 1
Format profile                   : Layer 3
Mode                             : Joint stereo
Codec ID                         : 55
Codec ID/Hint                    : MP3
Duration                         : 1h 23mn
Bit rate mode                    : Constant
Bit rate                         : 128 Kbps
Channel(s)                       : 2 channels
Sampling rate                    : 44.1 KHz
Compression mode                 : Lossy
Stream size                      : 76.7 MiB (5%)
Alignment                        : Split accross interleaves
Interleave, duration             : 40 ms (1.00 video frame)
Interleave, preload duration     : 500 ms
Writing library                  : LAME3.98r
Encoding settings                : -m j -V 4 -q 2 -lowpass 17 -b 128

Plot:
A priest disobeys church law to track down the vampires who kidnapped his niece.
SOURCES:
VIDEO: ......... Pastyr.2011.DVD-5.ELEKTRI4KA Thanx 
AUDIO: ......... Thanx Matey 
NOTES:
IMAGiNE bringing you another release..........Priest 2011
Ok guys,wanted to test a few new tweaks out and different ways of doing things and we we're please we the outcome we thought we'd release a v2.
Is v2 needed?? not really if you have v1 or one of the other r5 releases.....but theres some screenies and compareshots below so you can decide.
Work done.....all the normal stuff,contrast,brightness,rgb colours,sharpness etc....but like we said above try some different things aswell.
Audio still our audio as i thought it had touch more life to it than epic's,which is still great line audio.

Anyway grab or don't ......enjoy folks
[/code]
Screens:
[img]http://img217.imageshack.us/img217/1260/47401034.jpg[/img]
[img]http://img715.imageshack.us/img715/5273/69260863.jpg[/img]
[img]http://img27.imageshack.us/img27/9870/22694568.jpg[/img]
[img]http://img850.imageshack.us/img850/636/27724624.jpg[/img]
[img]http://img600.imageshack.us/img600/2725/91579091.jpg[/img]